<svg xmlns="http://www.w3.org/2000/svg" viewBox="0 0 132 132"><path d="M66 1c-27.1 0-35 0-36.6.2-5.6.5-9 1.3-12.8 3.2-2.9 1.4-5.2 3.1-7.5 5.5-4.1 4.2-6.6 9.5-7.5 15.8-.4 3-.6 3.6-.6 19.1V66c0 27.1 0 35 .2 36.6.5 5.4 1.3 8.8 3.1 12.6 3.4 7.1 10 12.5 17.8 14.5 2.7.7 5.6 1.1 9.4 1.2 1.6.1 18 .1 34.4.1s32.8 0 34.4-.1c4.4-.2 7-.6 9.8-1.3 7.8-2 14.2-7.3 17.8-14.5 1.8-3.6 2.7-7.2 3.1-12.3.1-1.1.1-19 .1-36.8 0-17.8 0-35.7-.1-36.8-.4-5.2-1.3-8.7-3.1-12.4-1.5-3-3.2-5.3-5.6-7.6-4.3-4.1-9.6-6.6-15.8-7.5-3-.4-3.6-.6-19.2-.6H66z" fill="#fff"/><path d="M66 18c-13 0-14.7.1-19.8.3-5.1.2-8.6 1-11.7 2.2-3.2 1.2-5.8 2.9-8.5 5.5-2.7 2.7-4.3 5.3-5.5 8.5-1.2 3.1-2 6.5-2.2 11.7-.2 5.1-.3 6.8-.3 19.8s.1 14.7.3 19.8c.2 5.1 1 8.6 2.2 11.7 1.2 3.2 2.9 5.8 5.5 8.5 2.7 2.7 5.3 4.3 8.5 5.5 3.1 1.2 6.5 2 11.7 2.2 5.1.2 6.8.3 19.8.3s14.7-.1 19.8-.3c5.1-.2 8.6-1 11.7-2.2 3.2-1.2 5.8-2.9 8.5-5.5 2.7-2.7 4.3-5.3 5.5-8.5 1.2-3.1 2-6.5 2.2-11.7.2-5.1.3-6.8.3-19.8s-.1-14.7-.3-19.8c-.2-5.1-1.1-8.6-2.2-11.7-1.2-3.2-2.9-5.8-5.5-8.5-2.7-2.7-5.3-4.3-8.5-5.5-3.1-1.2-6.6-2-11.7-2.2-5.1-.2-6.8-.3-19.8-.3zm-4.3 8.6H66c12.8 0 14.3 0 19.4.3 4.7.2 7.2 1 8.9 1.7 2.2.9 3.8 1.9 5.5 3.6 1.7 1.7 2.7 3.3 3.6 5.5.7 1.7 1.4 4.2 1.7 8.9.2 5.1.3 6.6.3 19.4s-.1 14.3-.3 19.4c-.2 4.7-1 7.2-1.7 8.9-.9 2.2-1.9 3.8-3.6 5.5-1.7 1.7-3.3 2.7-5.5 3.6-1.7.7-4.2 1.4-8.9 1.7-5.1.2-6.6.3-19.4.3-12.8 0-14.3-.1-19.4-.3-4.7-.2-7.2-1-8.9-1.7-2.2-.9-3.8-1.9-5.5-3.6-1.7-1.7-2.7-3.3-3.6-5.5-.7-1.7-1.4-4.2-1.7-8.9-.2-5.1-.3-6.6-.3-19.4s0-14.3.3-19.4c.2-4.7 1-7.2 1.7-8.9.9-2.2 1.9-3.8 3.6-5.5 1.7-1.7 3.3-2.7 5.5-3.6 1.7-.7 4.2-1.4 8.9-1.7 4.4-.2 6.2-.3 15.1-.3zm29.9 8c-3.2 0-5.8 2.6-5.8 5.8 0 3.2 2.6 5.8 5.8 5.8s5.8-2.6 5.8-5.8-2.6-5.8-5.8-5.8zM66 41.3c-13.6 0-24.7 11-24.7 24.7s11 24.6 24.7 24.6c13.6 0 24.6-11 24.6-24.6S79.6 41.3 66 41.3zm0 8.7c8.8 0 16 7.2 16 16s-7.2 16-16 16-16-7.2-16-16 7.2-16 16-16z" fill="#231f20"/></svg>