<svg xmlns="http://www.w3.org/2000/svg" viewBox="0 0 490 490"><path d="M376.1 255.1c.1-.1.1-.2.2-.2.3-.3.5-.7.7-1 .1-.2.3-.4.4-.7.1-.2.3-.4.4-.7.2-.3.3-.6.4-.9.1-.2.2-.3.2-.5.2-.4.3-.7.4-1.1 0-.1.1-.2.1-.3.1-.5.3-1 .4-1.5 1.1-5.1-.4-10.6-4.3-14.5l-85.2-85.3c-6.2-6.2-16.4-6.2-22.6 0s-6.2 16.4 0 22.6l58 58H54.8c-8.8 0-16 7.2-16 16s7.2 16 16 16h270.3l-57.9 57.9c-6.2 6.2-6.2 16.4 0 22.6 3.1 3.1 7.2 4.7 11.3 4.7s8.2-1.6 11.3-4.7l85.1-85.1c.4-.4.8-.9 1.2-1.3z"/><path d="M484.5 32.1v425.8H245v-40.7l193.9 1.5 2.2-347.4H245V32.1z"/></svg>